#!OML:ASF E:\acrobat2\Project_11_07_03\Capture day 1\Session 1\Acrobat.ASF
:FULLY-SPECIFIED
:DEGREES
49
root 8.5693 18.1031 -0.343992 2.27983 -57.9744 1.01508
lowerback -4.90957 1.95189 1.66838
upperback -0.928619 2.53904 -1.7397
thorax 1.9471 1.27706 -2.55749
lowerneck -0.0158251 -0.351469 -1.12995
upperneck 5.41317 -0.577092 2.12723
head 1.69319 -0.280413 0.84469
rclavicle 9.64354e-014 4.77083e-015
rhumerus -40.7172 -13.3251 -78.384
rradius 23.1947
rwrist 6.0136
rhand -8.79288 -40.4651
rfingers 7.12502
rthumb 17.1458 -69.7286
lclavicle 9.64354e-014 4.77083e-015
lhumerus -34.096 -0.621688 81.0709
lradius 22.952
lwrist 10.2914
lhand -3.27111 -13.5985
lfingers 7.12502
lthumb 22.4538 15.1162
rfemur 10.2213 14.0646 18.0603
rtibia -2.8196
rfoot -27.0482 -24.6249
rtoes 20.7742
lfemur 2.63559 -5.53631 -9.30017
ltibia -3.34558
lfoot -9.6495 5.62526
ltoes 32.1023
50
root 8.56299 18.1026 -0.339193 2.55373 -57.9162 0.70008
lowerback -5.02488 1.91765 1.92127
upperback -0.922069 2.47884 -1.72797
thorax 2.02497 1.24959 -2.68773
lowerneck -0.47157 -0.46194 -1.04894
upperneck 6.19733 -0.742907 2.15862
head 2.03005 -0.357518 0.841958
rclavicle 1.10512e-013 -1.03368e-014
rhumerus -40.8063 -13.7054 -78.0496
rradius 23.0503
rwrist 6.30028
rhand -8.71106 -40.0083
rfingers 7.12502
rthumb 17.2246 -69.2649
lclavicle 1.10512e-013 -1.03368e-014
lhumerus -33.8708 -0.318595 80.9174
lradius 22.8003
lwrist 10.5537
lhand -4.01686 -13.9805
lfingers 7.12502
lthumb 21.7378 14.8189
rfemur 10.2728 14.1317 18.3068
rtibia -2.84695
rfoot -27.2628 -24.5634
rtoes 21.7819
lfemur 2.71628 -5.74589 -9.13946
ltibia -3.47214
lfoot -9.71391 5.73844
ltoes 31.8532
51
root 8.55813 18.103 -0.336374 2.84349 -57.8822 0.401253
lowerback -5.1114 1.90565 2.17878
upperback -0.966746 2.44739 -1.72672
thorax 2.03605 1.2351 -2.83149
lowerneck -0.704542 -0.565975 -0.87004
upperneck 6.78382 -0.887326 1.95131
head 2.26326 -0.428623 0.744936
rclavicle -6.74004e-014 1.07344e-014
rhumerus -40.8704 -14.3886 -77.5927
rradius 22.8222
rwrist 7.03013
rhand -8.40781 -39.5841
rfingers 7.12502
rthumb 17.5164 -68.8149
lclavicle -6.74004e-014 1.07344e-014
lhumerus -33.6385 -0.52988 80.9582
lradius 22.5193
lwrist 10.9752
lhand -4.59722 -14.3593
lfingers 7.12502
lthumb 21.1804 14.5037
rfemur 10.2609 14.2558 18.5369
rtibia -2.86108
rfoot -27.5431 -24.5444
rtoes 22.623
lfemur 2.68122 -5.77523 -8.9326
ltibia -3.46698
lfoot -9.74351 5.69322
ltoes 32.1187
52
root 8.55426 18.1013 -0.336834 2.68092 -57.8767 0.630402
lowerback -5.15422 1.96809 2.13137
upperback -1.01168 2.53323 -1.80453
thorax 2.02092 1.2768 -2.87834
lowerneck -0.748424 -0.648525 -0.972522
upperneck 7.19869 -1.01712 2.13041
head 2.4131 -0.491195 0.818171
rclavicle -6.5425e-014 9.54166e-015
rhumerus -40.9466 -15.0779 -77.1775
rradius 22.7183
rwrist 7.47869
rhand -8.46127 -39.4705
rfingers 7.12502
rthumb 17.465 -68.706
lclavicle -6.5425e-014 9.54166e-015
lhumerus -33.3661 -0.911086 81.109
lradius 22.3117
lwrist 11.1001
lhand -4.70209 -14.4529
lfingers 7.12502
lthumb 21.0796 14.4213
rfemur 10.197 14.153 18.3602
rtibia -2.79046
rfoot -27.4304 -24.5248
rtoes 22.0479
lfemur 2.53718 -5.5669 -9.01595
ltibia -3.26686
lfoot -9.67474 5.44411
ltoes 33.0942
53
root 8.55042 18.0988 -0.338608 2.31393 -57.8574 1.05293
lowerback -5.20316 1.99501 1.94782
upperback -0.988631 2.57951 -1.86708
thorax 2.06996 1.29959 -2.83426
lowerneck -0.441546 -0.795771 -1.07538
upperneck 7.01622 -1.21927 2.27416
head 2.3034 -0.593429 0.876724
rclavicle -5.70574e-014 0
rhumerus -40.9479 -15.18 -77.0646
rradius 22.8265
rwrist 7.28278
rhand -8.62127 -39.5344
rfingers 7.12502
rthumb 17.311 -68.7835
lclavicle -5.70574e-014 0
lhumerus -33.0551 -0.916431 81.1743
lradius 22.2539
lwrist 10.728
lhand -4.29235 -14.1282
lfingers 7.12502
lthumb 21.4732 14.7016
rfemur 10.1763 14.1071 18.0886
rtibia -2.71041
rfoot -27.3685 -24.5391
rtoes 21.4557
lfemur 2.41802 -5.39927 -9.24502
ltibia -3.03189
lfoot -9.59627 5.2505
ltoes 33.1777
54
root 8.54633 18.0979 -0.342236 2.09962 -57.8354 1.24803
lowerback -5.24648 1.94317 1.8869
upperback -0.91211 2.51447 -1.88268
thorax 2.16686 1.26891 -2.81809
lowerneck -0.088283 -0.690353 -1.22457
upperneck 6.74905 -1.07922 2.40356
head 2.15216 -0.527333 0.94565
rclavicle -3.95706e-014 -8.34896e-015
rhumerus -40.8263 -14.9746 -77.2151
rradius 23.0134
rwrist 6.98103
rhand -8.75051 -39.784
rfingers 7.12502
rthumb 17.1866 -69.044
lclavicle -3.95706e-014 -8.34896e-015
lhumerus -32.7245 -0.407488 81.0268
lradius 22.2409
lwrist 9.96869
lhand -3.59044 -13.7124
lfingers 7.12502
lthumb 22.1472 15.039
rfemur 10.2115 14.2236 18.0414
rtibia -2.62149
rfoot -27.4641 -24.6817
rtoes 21.128
lfemur 2.38532 -5.3939 -9.35196
ltibia -2.88677
lfoot -9.584 5.19567
ltoes 32.8178
55
root 8.5439 18.0954 -0.34516 2.15243 -57.8484 1.13996
lowerback -5.28456 1.91569 2.05228
upperback -0.826463 2.46999 -1.90835
thorax 2.28166 1.25082 -2.93819
lowerneck 0.102356 -0.741592 -1.54627
upperneck 6.51155 -1.15164 2.65038
head 2.0481 -0.56723 1.07744
rclavicle -4.04465e-014 1.98785e-014
rhumerus -40.6319 -15.1085 -77.3594
rradius 23.1402
rwrist 7.06764
rhand -8.98166 -40.0782
rfingers 7.12502
rthumb 16.9641 -69.3574
lclavicle -4.04465e-014 1.98785e-014
lhumerus -32.4076 0.0302713 80.857
lradius 22.2501
lwrist 9.43254
lhand -3.06995 -13.6617
lfingers 7.12502
lthumb 22.6468 15.0296
rfemur 10.2932 14.6647 18.262
rtibia -2.65117
rfoot -28.0115 -24.6751
rtoes 22.8365
lfemur 2.36972 -5.36259 -9.24385
ltibia -2.78358
lfoot -9.57883 5.12002
ltoes 33.1752
56
root 8.54319 18.0916 -0.345262 2.43161 -57.9018 0.787149
lowerback -5.307 1.90758 2.32812
upperback -0.78284 2.44323 -1.86699
thorax 2.34708 1.24144 -3.0512
lowerneck 0.129285 -0.747416 -1.91658
upperneck 6.56523 -1.16076 2.76327
head 2.06632 -0.578272 1.17777
rclavicle -1.56854e-014 -1.98785e-014
rhumerus -40.478 -15.3087 -77.3504
rradius 23.2251
rwrist 7.3264
rhand -9.03299 -40.0707
rfingers 7.12502
rthumb 16.9147 -69.3541
lclavicle -1.56854e-014 -1.98785e-014
lhumerus -32.2863 -0.202403 81.0131
lradius 22.3699
lwrist 9.61259
lhand -2.81708 -13.6793
lfingers 7.12502
lthumb 22.8895 14.9822
rfemur 10.3079 14.8903 18.583
rtibia -2.61064
rfoot -28.166 -24.7806
rtoes 23.096
lfemur 2.36081 -5.26991 -8.96442
ltibia -2.70558
lfoot -9.58325 5.11179
ltoes 33.0247
57
root 8.54151 18.0898 -0.343714 2.64351 -57.9487 0.50346
lowerback -5.31675 1.88091 2.50091
upperback -0.76196 2.39639 -1.78937
thorax 2.37443 1.22019 -3.07114
lowerneck 0.414108 -0.995313 -1.42142
upperneck 6.26387 -1.46394 2.17249
head 1.91185 -0.732519 0.898264
rclavicle -8.77976e-014 -3.97569e-015
rhumerus -40.3732 -15.1868 -77.3973
rradius 23.3751
rwrist 7.29385
rhand -8.97219 -39.787
rfingers 7.12502
rthumb 16.9732 -69.0654
lclavicle -8.77976e-014 -3.97569e-015
lhumerus -32.2399 -0.51099 81.2447
lradius 22.516
lwrist 9.82022
lhand -2.55304 -13.6581
lfingers 7.12502
lthumb 23.1429 14.9718
rfemur 10.3246 14.9512 18.8068
rtibia -2.56711
rfoot -28.1178 -24.9372
rtoes 22.5409
lfemur 2.41398 -5.31569 -8.78215
ltibia -2.71823
lfoot -9.67486 5.21405
ltoes 32.7206
58
root 8.53838 18.0886 -0.341792 2.74088 -57.9608 0.37442
lowerback -5.34526 1.85387 2.58837
upperback -0.733028 2.35434 -1.7568
thorax 2.41929 1.20107 -3.08862
lowerneck 0.322379 -0.981119 -1.14407
upperneck 6.40743 -1.43758 1.91921
head 1.96787 -0.717828 0.771301
rclavicle -4.35401e-014 9.54166e-015
rhumerus -40.2851 -14.7232 -77.7174
rradius 23.6884
rwrist 6.71733
rhand -8.9763 -39.4921
rfingers 7.12502
rthumb 16.9693 -68.7708
lclavicle -4.35401e-014 9.54166e-015
lhumerus -32.1383 -0.797593 81.4634
lradius 22.6653
lwrist 10.0938
lhand -2.67229 -13.7691
lfingers 7.12502
lthumb 23.0284 14.8752
rfemur 10.3507 14.8949 18.886
rtibia -2.58675
rfoot -27.9578 -25.0202
rtoes 21.8822
lfemur 2.44771 -5.36904 -8.71128
ltibia -2.7322
lfoot -9.72346 5.25047
ltoes 32.7158
